<svg xmlns="http://www.w3.org/2000/svg" xmlns:xlink="http://www.w3.org/1999/xlink" width="500" zoomAndPan="magnify" viewBox="0 0 375 374.999991" height="500" preserveAspectRatio="xMidYMid meet" version="1.0"><defs><g/><clipPath id="ee1d5fbbc7"><path d="M 124.472656 87.808594 L 250.472656 87.808594 L 250.472656 213.808594 L 124.472656 213.808594 Z M 124.472656 87.808594 " clip-rule="nonzero"/></clipPath></defs><g fill="#033170" fill-opacity="1"><g transform="translate(53.997654, 257.967051)"><g><path d="M 13.921875 0.46875 C 12.503906 0.46875 11.164062 0.257812 9.90625 -0.15625 C 8.65625 -0.570312 7.515625 -1.160156 6.484375 -1.921875 C 5.453125 -2.679688 4.554688 -3.582031 3.796875 -4.625 C 3.035156 -5.664062 2.445312 -6.804688 2.03125 -8.046875 C 1.625 -9.296875 1.421875 -10.613281 1.421875 -12 C 1.421875 -13.394531 1.625 -14.71875 2.03125 -15.96875 C 2.445312 -17.21875 3.035156 -18.363281 3.796875 -19.40625 C 4.554688 -20.445312 5.453125 -21.34375 6.484375 -22.09375 C 7.515625 -22.851562 8.65625 -23.441406 9.90625 -23.859375 C 11.164062 -24.273438 12.503906 -24.484375 13.921875 -24.484375 C 15.179688 -24.484375 16.414062 -24.300781 17.625 -23.9375 C 18.84375 -23.582031 19.960938 -23.046875 20.984375 -22.328125 C 22.003906 -21.609375 22.878906 -20.703125 23.609375 -19.609375 C 24.335938 -18.523438 24.847656 -17.257812 25.140625 -15.8125 L 21.96875 -15.8125 C 21.601562 -17.101562 21.023438 -18.175781 20.234375 -19.03125 C 19.453125 -19.894531 18.507812 -20.539062 17.40625 -20.96875 C 16.3125 -21.394531 15.117188 -21.609375 13.828125 -21.609375 C 12.523438 -21.609375 11.304688 -21.375 10.171875 -20.90625 C 9.046875 -20.4375 8.0625 -19.769531 7.21875 -18.90625 C 6.382812 -18.039062 5.726562 -17.023438 5.25 -15.859375 C 4.78125 -14.691406 4.546875 -13.40625 4.546875 -12 C 4.546875 -10.582031 4.78125 -9.285156 5.25 -8.109375 C 5.726562 -6.941406 6.382812 -5.929688 7.21875 -5.078125 C 8.0625 -4.234375 9.046875 -3.578125 10.171875 -3.109375 C 11.304688 -2.640625 12.523438 -2.40625 13.828125 -2.40625 C 15.117188 -2.40625 16.3125 -2.617188 17.40625 -3.046875 C 18.5 -3.484375 19.441406 -4.128906 20.234375 -4.984375 C 21.023438 -5.835938 21.597656 -6.90625 21.953125 -8.1875 L 25.140625 -8.1875 C 24.847656 -6.75 24.335938 -5.484375 23.609375 -4.390625 C 22.890625 -3.304688 22.019531 -2.398438 21 -1.671875 C 19.976562 -0.953125 18.863281 -0.414062 17.65625 -0.0625 C 16.445312 0.289062 15.203125 0.46875 13.921875 0.46875 Z M 13.921875 0.46875 "/></g></g></g><g fill="#033170" fill-opacity="1"><g transform="translate(91.40274, 257.967051)"><g><path d="M 14.21875 0.46875 C 12.8125 0.46875 11.46875 0.257812 10.1875 -0.15625 C 8.90625 -0.570312 7.734375 -1.160156 6.671875 -1.921875 C 5.609375 -2.679688 4.679688 -3.582031 3.890625 -4.625 C 3.109375 -5.664062 2.5 -6.804688 2.0625 -8.046875 C 1.632812 -9.296875 1.421875 -10.613281 1.421875 -12 C 1.421875 -13.394531 1.632812 -14.71875 2.0625 -15.96875 C 2.5 -17.21875 3.109375 -18.363281 3.890625 -19.40625 C 4.679688 -20.445312 5.609375 -21.34375 6.671875 -22.09375 C 7.734375 -22.851562 8.90625 -23.441406 10.1875 -23.859375 C 11.46875 -24.273438 12.8125 -24.484375 14.21875 -24.484375 C 15.632812 -24.484375 16.984375 -24.273438 18.265625 -23.859375 C 19.546875 -23.441406 20.71875 -22.851562 21.78125 -22.09375 C 22.851562 -21.34375 23.78125 -20.445312 24.5625 -19.40625 C 25.351562 -18.363281 25.960938 -17.21875 26.390625 -15.96875 C 26.828125 -14.71875 27.046875 -13.394531 27.046875 -12 C 27.046875 -10.613281 26.828125 -9.296875 26.390625 -8.046875 C 25.960938 -6.804688 25.351562 -5.664062 24.5625 -4.625 C 23.78125 -3.582031 22.851562 -2.679688 21.78125 -1.921875 C 20.71875 -1.160156 19.546875 -0.570312 18.265625 -0.15625 C 16.984375 0.257812 15.632812 0.46875 14.21875 0.46875 Z M 14.21875 -2.40625 C 15.550781 -2.40625 16.804688 -2.644531 17.984375 -3.125 C 19.160156 -3.613281 20.191406 -4.289062 21.078125 -5.15625 C 21.972656 -6.03125 22.671875 -7.046875 23.171875 -8.203125 C 23.671875 -9.367188 23.921875 -10.632812 23.921875 -12 C 23.921875 -13.363281 23.671875 -14.628906 23.171875 -15.796875 C 22.671875 -16.960938 21.972656 -17.976562 21.078125 -18.84375 C 20.191406 -19.71875 19.160156 -20.394531 17.984375 -20.875 C 16.804688 -21.363281 15.550781 -21.609375 14.21875 -21.609375 C 12.875 -21.609375 11.617188 -21.363281 10.453125 -20.875 C 9.285156 -20.394531 8.257812 -19.71875 7.375 -18.84375 C 6.488281 -17.976562 5.796875 -16.960938 5.296875 -15.796875 C 4.796875 -14.628906 4.546875 -13.363281 4.546875 -12 C 4.546875 -10.632812 4.796875 -9.367188 5.296875 -8.203125 C 5.796875 -7.046875 6.488281 -6.03125 7.375 -5.15625 C 8.257812 -4.289062 9.285156 -3.613281 10.453125 -3.125 C 11.617188 -2.644531 12.875 -2.40625 14.21875 -2.40625 Z M 14.21875 -2.40625 "/></g></g></g><g fill="#033170" fill-opacity="1"><g transform="translate(130.6927, 257.967051)"><g><path d="M 6.375 0 L 3.265625 0 L 3.265625 -23.953125 L 5.953125 -23.953125 L 15.0625 -11.875 L 15.078125 -11.875 L 24.171875 -23.953125 L 26.90625 -23.953125 L 26.90625 0 L 23.78125 0 L 23.78125 -18.921875 L 15.5 -7.875 L 14.609375 -7.875 L 6.375 -18.9375 Z M 6.375 0 "/></g></g></g><g fill="#033170" fill-opacity="1"><g transform="translate(171.673757, 257.967051)"><g><path d="M 6.375 0 L 3.265625 0 L 3.265625 -23.953125 L 13.09375 -23.953125 C 14.25 -23.953125 15.3125 -23.757812 16.28125 -23.375 C 17.25 -22.988281 18.09375 -22.445312 18.8125 -21.75 C 19.53125 -21.050781 20.082031 -20.222656 20.46875 -19.265625 C 20.851562 -18.304688 21.046875 -17.265625 21.046875 -16.140625 C 21.046875 -14.960938 20.851562 -13.890625 20.46875 -12.921875 C 20.082031 -11.953125 19.535156 -11.113281 18.828125 -10.40625 C 18.128906 -9.707031 17.296875 -9.160156 16.328125 -8.765625 C 15.367188 -8.378906 14.3125 -8.1875 13.15625 -8.1875 L 6.375 -8.1875 Z M 6.375 -21.15625 L 6.375 -11.015625 L 13.015625 -11.015625 C 13.953125 -11.015625 14.789062 -11.234375 15.53125 -11.671875 C 16.269531 -12.117188 16.851562 -12.726562 17.28125 -13.5 C 17.71875 -14.28125 17.9375 -15.15625 17.9375 -16.125 C 17.9375 -16.8125 17.8125 -17.457031 17.5625 -18.0625 C 17.3125 -18.664062 16.960938 -19.195312 16.515625 -19.65625 C 16.066406 -20.125 15.539062 -20.488281 14.9375 -20.75 C 14.34375 -21.019531 13.691406 -21.15625 12.984375 -21.15625 Z M 6.375 -21.15625 "/></g></g></g><g fill="#033170" fill-opacity="1"><g transform="translate(204.269774, 257.967051)"><g><path d="M 11.5625 0 L 8.4375 0 L 8.4375 -21.15625 L 0.859375 -21.15625 L 0.859375 -23.953125 L 19.15625 -23.953125 L 19.15625 -21.15625 L 11.5625 -21.15625 Z M 11.5625 0 "/></g></g></g><g fill="#033170" fill-opacity="1"><g transform="translate(235.121841, 257.967051)"><g><path d="M 6.375 0 L 3.265625 0 L 3.265625 -23.953125 L 13.4375 -23.953125 C 14.601562 -23.953125 15.671875 -23.773438 16.640625 -23.421875 C 17.609375 -23.066406 18.445312 -22.554688 19.15625 -21.890625 C 19.863281 -21.222656 20.410156 -20.425781 20.796875 -19.5 C 21.191406 -18.582031 21.390625 -17.5625 21.390625 -16.4375 C 21.390625 -15.257812 21.171875 -14.195312 20.734375 -13.25 C 20.296875 -12.3125 19.679688 -11.519531 18.890625 -10.875 C 18.109375 -10.226562 17.191406 -9.765625 16.140625 -9.484375 L 21.921875 0 L 18.328125 0 L 13 -9.015625 C 12.875 -9.003906 12.742188 -9 12.609375 -9 C 12.484375 -9 12.351562 -9 12.21875 -9 L 6.375 -9 Z M 6.375 -21.15625 L 6.375 -11.65625 L 13.375 -11.65625 C 14.3125 -11.664062 15.144531 -11.867188 15.875 -12.265625 C 16.613281 -12.660156 17.195312 -13.21875 17.625 -13.9375 C 18.050781 -14.65625 18.265625 -15.484375 18.265625 -16.421875 C 18.265625 -17.335938 18.046875 -18.148438 17.609375 -18.859375 C 17.179688 -19.566406 16.59375 -20.125 15.84375 -20.53125 C 15.101562 -20.945312 14.257812 -21.15625 13.3125 -21.15625 Z M 6.375 -21.15625 "/></g></g></g><g fill="#033170" fill-opacity="1"><g transform="translate(268.950955, 257.967051)"><g><path d="M 19.34375 0 L 3.265625 0 L 3.265625 -23.953125 L 19.1875 -23.953125 L 19.1875 -21.125 L 6.375 -21.125 L 6.375 -13.53125 L 17.515625 -13.53125 L 17.515625 -10.859375 L 6.375 -10.859375 L 6.375 -2.8125 L 19.34375 -2.8125 Z M 19.34375 0 "/></g></g></g><g fill="#033170" fill-opacity="1"><g transform="translate(300.384339, 257.967051)"><g><path d="M 19.34375 0 L 3.265625 0 L 3.265625 -23.953125 L 19.1875 -23.953125 L 19.1875 -21.125 L 6.375 -21.125 L 6.375 -13.53125 L 17.515625 -13.53125 L 17.515625 -10.859375 L 6.375 -10.859375 L 6.375 -2.8125 L 19.34375 -2.8125 Z M 19.34375 0 "/></g></g></g><g fill="#033170" fill-opacity="1"><g transform="translate(121.889747, 282.079881)"><g><path d="M 2.265625 0 L 1.15625 0 L 1.15625 -8.484375 L 6.796875 -8.484375 L 6.796875 -7.484375 L 2.265625 -7.484375 L 2.265625 -4.5 L 6.203125 -4.5 L 6.203125 -3.5625 L 2.265625 -3.5625 Z M 2.265625 0 "/></g></g></g><g fill="#033170" fill-opacity="1"><g transform="translate(139.282187, 282.079881)"><g><path d="M 2.265625 0 L 1.15625 0 L 1.15625 -8.484375 L 2.265625 -8.484375 Z M 2.265625 0 "/></g></g></g><g fill="#033170" fill-opacity="1"><g transform="translate(152.913458, 282.079881)"><g><path d="M 4.96875 0.15625 C 4.46875 0.15625 3.992188 0.0820312 3.546875 -0.0625 C 3.109375 -0.207031 2.703125 -0.410156 2.328125 -0.671875 C 1.953125 -0.941406 1.628906 -1.257812 1.359375 -1.625 C 1.085938 -2 0.878906 -2.40625 0.734375 -2.84375 C 0.585938 -3.289062 0.515625 -3.757812 0.515625 -4.25 C 0.515625 -4.75 0.585938 -5.21875 0.734375 -5.65625 C 0.878906 -6.101562 1.085938 -6.507812 1.359375 -6.875 C 1.628906 -7.238281 1.953125 -7.554688 2.328125 -7.828125 C 2.703125 -8.097656 3.109375 -8.304688 3.546875 -8.453125 C 3.992188 -8.597656 4.46875 -8.671875 4.96875 -8.671875 C 5.414062 -8.671875 5.859375 -8.609375 6.296875 -8.484375 C 6.734375 -8.359375 7.132812 -8.171875 7.5 -7.921875 C 7.863281 -7.679688 8.175781 -7.378906 8.4375 -7.015625 C 8.707031 -6.660156 8.898438 -6.257812 9.015625 -5.8125 L 7.890625 -5.8125 C 7.734375 -6.195312 7.507812 -6.523438 7.21875 -6.796875 C 6.9375 -7.078125 6.597656 -7.289062 6.203125 -7.4375 C 5.816406 -7.582031 5.394531 -7.65625 4.9375 -7.65625 C 4.476562 -7.65625 4.046875 -7.570312 3.640625 -7.40625 C 3.242188 -7.238281 2.890625 -7 2.578125 -6.6875 C 2.273438 -6.382812 2.035156 -6.023438 1.859375 -5.609375 C 1.691406 -5.203125 1.609375 -4.75 1.609375 -4.25 C 1.609375 -3.75 1.691406 -3.289062 1.859375 -2.875 C 2.035156 -2.457031 2.273438 -2.097656 2.578125 -1.796875 C 2.890625 -1.492188 3.242188 -1.257812 3.640625 -1.09375 C 4.046875 -0.9375 4.476562 -0.859375 4.9375 -0.859375 C 5.425781 -0.859375 5.851562 -0.925781 6.21875 -1.0625 C 6.59375 -1.195312 6.910156 -1.382812 7.171875 -1.625 C 7.441406 -1.863281 7.65625 -2.140625 7.8125 -2.453125 C 7.976562 -2.765625 8.085938 -3.101562 8.140625 -3.46875 L 4.90625 -3.46875 L 4.90625 -4.46875 L 9.296875 -4.46875 C 9.296875 -3.820312 9.195312 -3.21875 9 -2.65625 C 8.8125 -2.101562 8.53125 -1.613281 8.15625 -1.1875 C 7.789062 -0.769531 7.335938 -0.441406 6.796875 -0.203125 C 6.265625 0.0351562 5.65625 0.15625 4.96875 0.15625 Z M 4.96875 0.15625 "/></g></g></g><g fill="#033170" fill-opacity="1"><g transform="translate(172.931857, 282.079881)"><g><path d="M 2.265625 0 L 1.15625 0 L 1.15625 -8.484375 L 2.265625 -8.484375 L 2.265625 -4.75 L 7.171875 -4.75 L 7.171875 -8.484375 L 8.28125 -8.484375 L 8.28125 0 L 7.171875 0 L 7.171875 -3.75 L 2.265625 -3.75 Z M 2.265625 0 "/></g></g></g><g fill="#033170" fill-opacity="1"><g transform="translate(192.576005, 282.079881)"><g><path d="M 4.09375 0 L 2.984375 0 L 2.984375 -7.5 L 0.3125 -7.5 L 0.3125 -8.484375 L 6.78125 -8.484375 L 6.78125 -7.5 L 4.09375 -7.5 Z M 4.09375 0 "/></g></g></g><g fill="#033170" fill-opacity="1"><g transform="translate(209.887356, 282.079881)"><g><path d="M 2.265625 0 L 1.15625 0 L 1.15625 -8.484375 L 2.265625 -8.484375 Z M 2.265625 0 "/></g></g></g><g fill="#033170" fill-opacity="1"><g transform="translate(223.518626, 282.079881)"><g><path d="M 7.328125 -1.828125 L 7.328125 -8.484375 L 8.421875 -8.484375 L 8.421875 0 L 7.484375 0 L 2.265625 -6.640625 L 2.265625 0 L 1.15625 0 L 1.15625 -8.484375 L 2.078125 -8.484375 L 7.3125 -1.828125 Z M 7.328125 -1.828125 "/></g></g></g><g fill="#033170" fill-opacity="1"><g transform="translate(243.306235, 282.079881)"><g><path d="M 4.96875 0.15625 C 4.46875 0.15625 3.992188 0.0820312 3.546875 -0.0625 C 3.109375 -0.207031 2.703125 -0.410156 2.328125 -0.671875 C 1.953125 -0.941406 1.628906 -1.257812 1.359375 -1.625 C 1.085938 -2 0.878906 -2.40625 0.734375 -2.84375 C 0.585938 -3.289062 0.515625 -3.757812 0.515625 -4.25 C 0.515625 -4.75 0.585938 -5.21875 0.734375 -5.65625 C 0.878906 -6.101562 1.085938 -6.507812 1.359375 -6.875 C 1.628906 -7.238281 1.953125 -7.554688 2.328125 -7.828125 C 2.703125 -8.097656 3.109375 -8.304688 3.546875 -8.453125 C 3.992188 -8.597656 4.46875 -8.671875 4.96875 -8.671875 C 5.414062 -8.671875 5.859375 -8.609375 6.296875 -8.484375 C 6.734375 -8.359375 7.132812 -8.171875 7.5 -7.921875 C 7.863281 -7.679688 8.175781 -7.378906 8.4375 -7.015625 C 8.707031 -6.660156 8.898438 -6.257812 9.015625 -5.8125 L 7.890625 -5.8125 C 7.734375 -6.195312 7.507812 -6.523438 7.21875 -6.796875 C 6.9375 -7.078125 6.597656 -7.289062 6.203125 -7.4375 C 5.816406 -7.582031 5.394531 -7.65625 4.9375 -7.65625 C 4.476562 -7.65625 4.046875 -7.570312 3.640625 -7.40625 C 3.242188 -7.238281 2.890625 -7 2.578125 -6.6875 C 2.273438 -6.382812 2.035156 -6.023438 1.859375 -5.609375 C 1.691406 -5.203125 1.609375 -4.75 1.609375 -4.25 C 1.609375 -3.75 1.691406 -3.289062 1.859375 -2.875 C 2.035156 -2.457031 2.273438 -2.097656 2.578125 -1.796875 C 2.890625 -1.492188 3.242188 -1.257812 3.640625 -1.09375 C 4.046875 -0.9375 4.476562 -0.859375 4.9375 -0.859375 C 5.425781 -0.859375 5.851562 -0.925781 6.21875 -1.0625 C 6.59375 -1.195312 6.910156 -1.382812 7.171875 -1.625 C 7.441406 -1.863281 7.65625 -2.140625 7.8125 -2.453125 C 7.976562 -2.765625 8.085938 -3.101562 8.140625 -3.46875 L 4.90625 -3.46875 L 4.90625 -4.46875 L 9.296875 -4.46875 C 9.296875 -3.820312 9.195312 -3.21875 9 -2.65625 C 8.8125 -2.101562 8.53125 -1.613281 8.15625 -1.1875 C 7.789062 -0.769531 7.335938 -0.441406 6.796875 -0.203125 C 6.265625 0.0351562 5.65625 0.15625 4.96875 0.15625 Z M 4.96875 0.15625 "/></g></g></g><g clip-path="url(#ee1d5fbbc7)"><path fill="#033170" d="M 187.523438 94.390625 C 203.101562 94.390625 217.21875 100.71875 227.453125 110.902344 C 237.636719 121.136719 243.964844 135.28125 243.964844 150.832031 C 243.964844 166.414062 237.636719 180.554688 227.453125 190.765625 C 217.21875 201 203.078125 207.304688 187.523438 207.304688 C 171.941406 207.304688 157.800781 200.976562 147.589844 190.765625 C 137.355469 180.582031 131.054688 166.4375 131.054688 150.832031 C 131.054688 135.230469 137.355469 121.113281 147.589844 110.902344 C 157.773438 100.667969 171.890625 94.390625 187.523438 94.390625 Z M 235.746094 173.648438 L 139.246094 173.648438 C 139.824219 174.859375 140.457031 176.09375 141.160156 177.304688 L 233.90625 177.304688 C 234.539062 176.117188 235.191406 174.882812 235.746094 173.648438 Z M 137.886719 170.574219 L 185.960938 170.574219 L 185.960938 155.144531 L 161.757812 142.96875 L 134.179688 148.109375 C 134.152344 148.992188 134.101562 149.875 134.101562 150.757812 C 134.101562 157.792969 135.488281 164.445312 137.886719 170.574219 Z M 189.035156 170.574219 L 237.082031 170.574219 C 239.527344 164.445312 240.890625 157.792969 240.890625 150.808594 C 240.890625 149.925781 240.863281 149.042969 240.789062 148.160156 L 213.210938 142.992188 L 189.058594 155.167969 L 189.058594 170.574219 Z M 231.941406 180.355469 L 143.003906 180.355469 C 143.859375 181.613281 144.742188 182.824219 145.648438 184.007812 L 229.21875 184.007812 C 230.203125 182.875 231.132812 181.613281 231.941406 180.355469 Z M 226.671875 187.085938 L 148.320312 187.085938 C 148.800781 187.613281 149.253906 188.09375 149.734375 188.570312 C 150.464844 189.304688 151.296875 190.058594 152.050781 190.742188 L 222.890625 190.742188 C 223.699219 190.007812 224.453125 189.304688 225.210938 188.570312 C 225.738281 188.066406 226.21875 187.589844 226.671875 187.085938 Z M 219.132812 193.816406 L 155.859375 193.816406 C 157.625 195.175781 159.539062 196.414062 161.554688 197.472656 L 213.488281 197.472656 C 215.429688 196.386719 217.320312 195.175781 219.132812 193.816406 Z M 206.933594 200.570312 L 168.058594 200.570312 C 174.035156 202.890625 180.589844 204.226562 187.421875 204.226562 L 187.671875 204.226562 C 194.453125 204.175781 200.933594 202.890625 206.933594 200.570312 Z M 189.035156 97.441406 L 189.035156 118.867188 L 199.671875 113.550781 L 200.707031 99.078125 C 196.976562 98.144531 193.042969 97.566406 189.035156 97.441406 Z M 203.730469 99.960938 L 202.875 111.9375 L 215.679688 105.507812 C 212 103.164062 208.015625 101.296875 203.730469 99.960938 Z M 218.605469 107.421875 L 200.984375 116.320312 L 220.21875 119.953125 L 227.984375 116.070312 C 227.101562 115.035156 226.21875 114.078125 225.210938 113.121094 C 223.195312 111.003906 221 109.113281 218.605469 107.421875 Z M 229.949219 118.464844 L 209.933594 128.5 L 228.285156 131.925781 L 235.824219 128.09375 C 234.234375 124.71875 232.242188 121.464844 229.949219 118.464844 Z M 237.082031 130.992188 L 217.722656 140.699219 L 240.539062 144.984375 C 240.035156 140.070312 238.824219 135.378906 237.082031 130.992188 Z M 134.457031 144.984375 L 157.269531 140.699219 L 137.910156 130.992188 C 136.144531 135.378906 134.960938 140.070312 134.457031 144.984375 Z M 139.144531 128.171875 L 146.707031 131.976562 L 165.035156 128.546875 L 145.042969 118.464844 C 142.75 121.464844 140.757812 124.71875 139.144531 128.171875 Z M 147.011719 116.019531 L 154.726562 119.902344 L 174.011719 116.273438 L 156.386719 107.398438 C 154.019531 109.085938 151.800781 110.976562 149.785156 113.046875 C 148.800781 114.027344 147.894531 114.984375 147.011719 116.019531 Z M 159.289062 105.457031 L 172.144531 111.886719 L 171.261719 99.910156 C 167.027344 101.296875 162.992188 103.164062 159.289062 105.457031 Z M 174.261719 99.078125 L 175.296875 113.550781 L 185.960938 118.867188 L 185.960938 97.441406 C 181.902344 97.566406 178.019531 98.144531 174.261719 99.078125 Z M 189.035156 122.347656 L 189.035156 135.632812 L 215.707031 122.195312 L 196.445312 118.566406 Z M 189.035156 139.035156 L 189.035156 151.691406 L 223.796875 134.222656 L 205.445312 130.792969 Z M 185.960938 151.691406 L 185.960938 139.035156 L 169.523438 130.765625 L 151.21875 134.195312 Z M 185.960938 135.605469 L 185.960938 122.320312 L 178.496094 118.566406 L 159.261719 122.144531 Z M 187.523438 87.808594 C 204.917969 87.808594 220.699219 94.820312 232.066406 106.261719 C 243.460938 117.683594 250.519531 133.414062 250.519531 150.808594 C 250.519531 168.226562 243.511719 183.984375 232.066406 195.378906 C 220.648438 206.796875 204.917969 213.855469 187.523438 213.855469 C 170.101562 213.855469 154.347656 206.796875 142.953125 195.402344 C 131.558594 184.007812 124.472656 168.253906 124.472656 150.808594 C 124.472656 133.414062 131.53125 117.632812 142.925781 106.261719 C 154.320312 94.820312 170.078125 87.808594 187.523438 87.808594 Z M 229.875 108.40625 C 219.058594 97.566406 204.058594 90.835938 187.523438 90.835938 C 170.933594 90.835938 155.984375 97.566406 145.121094 108.40625 C 134.230469 119.273438 127.550781 134.246094 127.550781 150.808594 C 127.550781 167.394531 134.230469 182.34375 145.09375 193.210938 C 155.960938 204.074219 170.910156 210.757812 187.496094 210.757812 C 204.035156 210.757812 219.035156 204.074219 229.847656 193.210938 C 240.714844 182.34375 247.417969 167.394531 247.417969 150.808594 C 247.445312 134.269531 240.738281 119.273438 229.875 108.40625 Z M 229.875 108.40625 " fill-opacity="1" fill-rule="nonzero"/></g></svg>